INFO: Created TensorFlow Lite XNNPACK delegate for CPU.
W0000 00:00:1778434571.737439   33960 inference_feedback_manager.cc:121] Feedback manager requires a model with a single signature inference. Disabling support for feedback tensors.
ffmpeg version 8.1.1-full_build-www.gyan.dev Copyright (c) 2000-2026 the FFmpeg developers
  built with gcc 15.2.0 (Rev13, Built by MSYS2 project)
  configuration: --enable-gpl --enable-version3 --enable-static --disable-w32threads --disable-autodetect --enable-cairo --enable-fontconfig --enable-iconv --enable-gnutls --enable-lcms2 --enable-libxml2 --enable-gmp --enable-bzlib --enable-lzma --enable-libsnappy --enable-zlib --enable-librist --enable-libsrt --enable-libssh --enable-libzmq --enable-avisynth --enable-libbluray --enable-libcaca --enable-libdvdnav --enable-libdvdread --enable-sdl2 --enable-libaribb24 --enable-libaribcaption --enable-libdav1d --enable-libdavs2 --enable-libopenjpeg --enable-libquirc --enable-libuavs3d --enable-libxevd --enable-libzvbi --enable-liboapv --enable-libqrencode --enable-librav1e --enable-libsvtav1 --enable-libvvenc --enable-libwebp --enable-libx264 --enable-libx265 --enable-libxavs2 --enable-libxeve --enable-libxvid --enable-libaom --enable-libjxl --enable-libsvtjpegxs --enable-libvpx --enable-mediafoundation --enable-libass --enable-frei0r --enable-libfreetype --enable-libfribidi --enable-libharfbuzz --enable-liblensfun --enable-libvidstab --enable-libvmaf --enable-libzimg --enable-amf --enable-cuda-llvm --enable-cuvid --enable-dxva2 --enable-d3d11va --enable-d3d12va --enable-ffnvcodec --enable-libvpl --enable-nvdec --enable-nvenc --enable-vaapi --enable-libshaderc --enable-vulkan --enable-libplacebo --enable-opencl --enable-libcdio --enable-openal --enable-libgme --enable-libmodplug --enable-libopenmpt --enable-libopencore-amrwb --enable-libmp3lame --enable-libshine --enable-libtheora --enable-libtwolame --enable-libvo-amrwbenc --enable-libcodec2 --enable-libilbc --enable-libgsm --enable-liblc3 --enable-libopencore-amrnb --enable-libopus --enable-libspeex --enable-libvorbis --enable-ladspa --enable-libbs2b --enable-libflite --enable-libmysofa --enable-librubberband --enable-libsoxr --enable-chromaprint --enable-whisper
  libavutil      60. 26.101 / 60. 26.101
  libavcodec     62. 28.101 / 62. 28.101
  libavformat    62. 12.101 / 62. 12.101
  libavdevice    62.  3.101 / 62.  3.101
  libavfilter    11. 14.101 / 11. 14.101
  libswscale      9.  5.101 /  9.  5.101
  libswresample   6.  3.101 /  6.  3.101
Input #0, avi, from 'C:\Users\Macie\AppData\Local\Temp\face_track__74uoglp\segment_1_17-47_41_18-35_79_silent.avi':
  Metadata:
    software        : Lavf62.12.101
  Duration: 00:00:48.38, start: 0.000000, bitrate: 13402 kb/s
  Stream #0:0: Video: h264 (High) (H264 / 0x34363248), yuvj420p(pc, bt470bg/unknown/unknown, progressive), 1080x1920 [SAR 1:1 DAR 9:16], 13394 kb/s, 59.94 fps, 59.94 tbr, 59.94 tbn
Input #1, mov,mp4,m4a,3gp,3g2,mj2, from 'C:\Users\Macie\AppData\Local\Temp\face_track__74uoglp\segment_1_17-47_41_18-35_79_audio.m4a':
  Metadata:
    major_brand     : M4A 
    minor_version   : 512
    compatible_brands: M4A isomiso2
    encoder         : Lavf62.12.101
  Duration: 00:00:48.38, start: 0.000000, bitrate: 202 kb/s
  Stream #1:0[0x1](eng): Audio: aac (LC) (mp4a / 0x6134706D), 48000 Hz, stereo, fltp, 201 kb/s (default)
    Metadata:
      handler_name    : SoundHandler
Stream mapping:
  Stream #0:0 -> #0:0 (h264 (native) -> h264 (libx264))
  Stream #1:0 -> #0:1 (aac (native) -> aac (native))
Press [q] to stop, [?] for help
[swscaler @ 000001f66e4ecc80] deprecated pixel format used, make sure you did set range correctly
[libx264 @ 000001f66a6055c0] using SAR=1/1
[libx264 @ 000001f66a6055c0] using cpu capabilities: MMX2 SSE2Fast SSSE3 SSE4.2 AVX FMA3 BMI2 AVX2 AVX512
[libx264 @ 000001f66a6055c0] profile High, level 4.2, 4:2:0, 8-bit
[libx264 @ 000001f66a6055c0] 264 - core 165 r3223 0480cb0 - H.264/MPEG-4 AVC codec - Copyleft 2003-2025 - http://www.videolan.org/x264.html - options: cabac=1 ref=1 deblock=1:0:0 analyse=0x3:0x3 me=dia subme=1 psy=1 psy_rd=1.00:0.00 mixed_ref=0 me_range=16 chroma_me=1 trellis=0 8x8dct=1 cqm=0 deadzone=21,11 fast_pskip=1 chroma_qp_offset=0 threads=24 lookahead_threads=4 sliced_threads=0 nr=0 decimate=1 interlaced=0 bluray_compat=0 constrained_intra=0 bframes=3 b_pyramid=2 b_adapt=1 b_bias=0 direct=1 weightb=1 open_gop=0 weightp=1 keyint=250 keyint_min=25 scenecut=40 intra_refresh=0 rc=crf mbtree=0 crf=23.0 qcomp=0.60 qpmin=0 qpmax=69 qpstep=4 ip_ratio=1.40 pb_ratio=1.30 aq=1:1.00
Output #0, mp4, to 'D:\PythonProjects\viral-cutter-ai\benchmarks\runs\20260510_171633\emeritos_gameplay\compare_generic\cuts_raw\segment_1_17-47_41_18-35_79.mp4':
  Metadata:
    software        : Lavf62.12.101
    encoder         : Lavf62.12.101
  Stream #0:0: Video: h264 (avc1 / 0x31637661), yuv420p(pc, bt470bg/unknown/unknown, progressive), 1080x1920 [SAR 1:1 DAR 9:16], q=2-31, 59.94 fps, 60k tbn
    Metadata:
      encoder         : Lavc62.28.101 libx264
    Side data:
      CPB properties: bitrate max/min/avg: 0/0/0 buffer size: 0 vbv_delay: N/A
  Stream #0:1(eng): Audio: aac (LC) (mp4a / 0x6134706D), 48000 Hz, stereo, fltp, 192 kb/s (default)
    Metadata:
      encoder         : Lavc62.28.101 aac
      handler_name    : SoundHandler
frame=  231 fps=0.0 q=27.0 size=    3840KiB time=00:00:03.85 bitrate=8162.7kbits/s speed=7.48x elapsed=0:00:00.51    frame=  533 fps=523 q=25.0 size=    7680KiB time=00:00:08.89 bitrate=7075.3kbits/s speed=8.72x elapsed=0:00:01.01    frame=  640 fps=417 q=26.0 size=    8960KiB time=00:00:10.67 bitrate=6874.4kbits/s speed=6.95x elapsed=0:00:01.53    frame=  912 fps=442 q=28.0 size=   13568KiB time=00:00:15.21 bitrate=7305.2kbits/s speed=7.37x elapsed=0:00:02.06    frame= 1225 fps=477 q=25.0 size=   17408KiB time=00:00:20.43 bitrate=6977.8kbits/s speed=7.97x elapsed=0:00:02.56    frame= 1540 fps=499 q=24.0 size=   20992KiB time=00:00:25.69 bitrate=6693.3kbits/s speed=8.33x elapsed=0:00:03.08    frame= 1837 fps=510 q=28.0 size=   25344KiB time=00:00:30.64 bitrate=6774.4kbits/s speed= 8.5x elapsed=0:00:03.60    frame= 2152 fps=522 q=28.0 size=   29440KiB time=00:00:35.90 bitrate=6717.4kbits/s speed=8.72x elapsed=0:00:04.11    frame= 2496 fps=539 q=27.0 size=   34304KiB time=00:00:42.19 bitrate=6659.6kbits/s speed=9.11x elapsed=0:00:04.63    frame= 2839 fps=550 q=25.0 size=   40448KiB time=00:00:47.91 bitrate=6915.4kbits/s speed=9.29x elapsed=0:00:05.15    [mp4 @ 000001f66cacd9c0] Starting second pass: moving the moov atom to the beginning of the file
[out#0/mp4 @ 000001f66a64ba80] video:40233KiB audio:1183KiB subtitle:0KiB other streams:0KiB global headers:0KiB muxing overhead: 0.182465%
frame= 2898 fps=554 q=-1.0 Lsize=   41491KiB time=00:00:48.34 bitrate=7030.2kbits/s speed=9.24x elapsed=0:00:05.23    
[libx264 @ 000001f66a6055c0] frame I:15    Avg QP:19.25  size: 69450
[libx264 @ 000001f66a6055c0] frame P:994   Avg QP:21.09  size: 25098
[libx264 @ 000001f66a6055c0] frame B:1889  Avg QP:22.87  size:  8051
[libx264 @ 000001f66a6055c0] consecutive B-frames:  6.1% 19.3%  4.6% 70.0%
[libx264 @ 000001f66a6055c0] mb I  I16..4: 13.9% 62.1% 24.0%
[libx264 @ 000001f66a6055c0] mb P  I16..4:  9.0% 27.5%  2.6%  P16..4: 31.7%  0.0%  0.0%  0.0%  0.0%    skip:29.2%
[libx264 @ 000001f66a6055c0] mb B  I16..4:  1.8%  3.7%  0.2%  B16..8: 23.5%  0.0%  0.0%  direct: 5.5%  skip:65.4%  L0:43.6% L1:49.4% BI: 7.0%
[libx264 @ 000001f66a6055c0] 8x8 transform intra:68.9% inter:49.9%
[libx264 @ 000001f66a6055c0] coded y,uvDC,uvAC intra: 36.1% 30.5% 6.2% inter: 3.9% 8.8% 0.0%
[libx264 @ 000001f66a6055c0] i16 v,h,dc,p: 37% 36% 10% 16%
[libx264 @ 000001f66a6055c0] i8 v,h,dc,ddl,ddr,vr,hd,vl,hu: 15% 29% 16%  6%  6%  5% 10%  4%  9%
[libx264 @ 000001f66a6055c0] i4 v,h,dc,ddl,ddr,vr,hd,vl,hu: 20% 34% 11%  6%  6%  5%  7%  4%  8%
[libx264 @ 000001f66a6055c0] i8c dc,h,v,p: 52% 24% 16%  8%
[libx264 @ 000001f66a6055c0] Weighted P-Frames: Y:0.6% UV:0.3%
[libx264 @ 000001f66a6055c0] kb/s:6816.90
[aac @ 000001f66ca404c0] Qavg: 612.975
W0000 00:00:1778434634.802680   33764 inference_feedback_manager.cc:121] Feedback manager requires a model with a single signature inference. Disabling support for feedback tensors.
ffmpeg version 8.1.1-full_build-www.gyan.dev Copyright (c) 2000-2026 the FFmpeg developers
  built with gcc 15.2.0 (Rev13, Built by MSYS2 project)
  configuration: --enable-gpl --enable-version3 --enable-static --disable-w32threads --disable-autodetect --enable-cairo --enable-fontconfig --enable-iconv --enable-gnutls --enable-lcms2 --enable-libxml2 --enable-gmp --enable-bzlib --enable-lzma --enable-libsnappy --enable-zlib --enable-librist --enable-libsrt --enable-libssh --enable-libzmq --enable-avisynth --enable-libbluray --enable-libcaca --enable-libdvdnav --enable-libdvdread --enable-sdl2 --enable-libaribb24 --enable-libaribcaption --enable-libdav1d --enable-libdavs2 --enable-libopenjpeg --enable-libquirc --enable-libuavs3d --enable-libxevd --enable-libzvbi --enable-liboapv --enable-libqrencode --enable-librav1e --enable-libsvtav1 --enable-libvvenc --enable-libwebp --enable-libx264 --enable-libx265 --enable-libxavs2 --enable-libxeve --enable-libxvid --enable-libaom --enable-libjxl --enable-libsvtjpegxs --enable-libvpx --enable-mediafoundation --enable-libass --enable-frei0r --enable-libfreetype --enable-libfribidi --enable-libharfbuzz --enable-liblensfun --enable-libvidstab --enable-libvmaf --enable-libzimg --enable-amf --enable-cuda-llvm --enable-cuvid --enable-dxva2 --enable-d3d11va --enable-d3d12va --enable-ffnvcodec --enable-libvpl --enable-nvdec --enable-nvenc --enable-vaapi --enable-libshaderc --enable-vulkan --enable-libplacebo --enable-opencl --enable-libcdio --enable-openal --enable-libgme --enable-libmodplug --enable-libopenmpt --enable-libopencore-amrwb --enable-libmp3lame --enable-libshine --enable-libtheora --enable-libtwolame --enable-libvo-amrwbenc --enable-libcodec2 --enable-libilbc --enable-libgsm --enable-liblc3 --enable-libopencore-amrnb --enable-libopus --enable-libspeex --enable-libvorbis --enable-ladspa --enable-libbs2b --enable-libflite --enable-libmysofa --enable-librubberband --enable-libsoxr --enable-chromaprint --enable-whisper
  libavutil      60. 26.101 / 60. 26.101
  libavcodec     62. 28.101 / 62. 28.101
  libavformat    62. 12.101 / 62. 12.101
  libavdevice    62.  3.101 / 62.  3.101
  libavfilter    11. 14.101 / 11. 14.101
  libswscale      9.  5.101 /  9.  5.101
  libswresample   6.  3.101 /  6.  3.101
Input #0, avi, from 'C:\Users\Macie\AppData\Local\Temp\face_track_qm2tu86n\segment_2_16-38_20_17-19_73_silent.avi':
  Metadata:
    software        : Lavf62.12.101
  Duration: 00:00:41.52, start: 0.000000, bitrate: 9078 kb/s
  Stream #0:0: Video: h264 (High) (H264 / 0x34363248), yuvj420p(pc, bt470bg/unknown/unknown, progressive), 1080x1920 [SAR 1:1 DAR 9:16], 9069 kb/s, 59.94 fps, 59.94 tbr, 59.94 tbn
Input #1, mov,mp4,m4a,3gp,3g2,mj2, from 'C:\Users\Macie\AppData\Local\Temp\face_track_qm2tu86n\segment_2_16-38_20_17-19_73_audio.m4a':
  Metadata:
    major_brand     : M4A 
    minor_version   : 512
    compatible_brands: M4A isomiso2
    encoder         : Lavf62.12.101
  Duration: 00:00:41.53, start: 0.000000, bitrate: 197 kb/s
  Stream #1:0[0x1](eng): Audio: aac (LC) (mp4a / 0x6134706D), 48000 Hz, stereo, fltp, 195 kb/s (default)
    Metadata:
      handler_name    : SoundHandler
Stream mapping:
  Stream #0:0 -> #0:0 (h264 (native) -> h264 (libx264))
  Stream #1:0 -> #0:1 (aac (native) -> aac (native))
Press [q] to stop, [?] for help
[swscaler @ 0000020d41812580] deprecated pixel format used, make sure you did set range correctly
[libx264 @ 0000020d3ff18640] using SAR=1/1
[libx264 @ 0000020d3ff18640] using cpu capabilities: MMX2 SSE2Fast SSSE3 SSE4.2 AVX FMA3 BMI2 AVX2 AVX512
[libx264 @ 0000020d3ff18640] profile High, level 4.2, 4:2:0, 8-bit
[libx264 @ 0000020d3ff18640] 264 - core 165 r3223 0480cb0 - H.264/MPEG-4 AVC codec - Copyleft 2003-2025 - http://www.videolan.org/x264.html - options: cabac=1 ref=1 deblock=1:0:0 analyse=0x3:0x3 me=dia subme=1 psy=1 psy_rd=1.00:0.00 mixed_ref=0 me_range=16 chroma_me=1 trellis=0 8x8dct=1 cqm=0 deadzone=21,11 fast_pskip=1 chroma_qp_offset=0 threads=24 lookahead_threads=4 sliced_threads=0 nr=0 decimate=1 interlaced=0 bluray_compat=0 constrained_intra=0 bframes=3 b_pyramid=2 b_adapt=1 b_bias=0 direct=1 weightb=1 open_gop=0 weightp=1 keyint=250 keyint_min=25 scenecut=40 intra_refresh=0 rc=crf mbtree=0 crf=23.0 qcomp=0.60 qpmin=0 qpmax=69 qpstep=4 ip_ratio=1.40 pb_ratio=1.30 aq=1:1.00
Output #0, mp4, to 'D:\PythonProjects\viral-cutter-ai\benchmarks\runs\20260510_171633\emeritos_gameplay\compare_generic\cuts_raw\segment_2_16-38_20_17-19_73.mp4':
  Metadata:
    software        : Lavf62.12.101
    encoder         : Lavf62.12.101
  Stream #0:0: Video: h264 (avc1 / 0x31637661), yuv420p(pc, bt470bg/unknown/unknown, progressive), 1080x1920 [SAR 1:1 DAR 9:16], q=2-31, 59.94 fps, 60k tbn
    Metadata:
      encoder         : Lavc62.28.101 libx264
    Side data:
      CPB properties: bitrate max/min/avg: 0/0/0 buffer size: 0 vbv_delay: N/A
  Stream #0:1(eng): Audio: aac (LC) (mp4a / 0x6134706D), 48000 Hz, stereo, fltp, 192 kb/s (default)
    Metadata:
      encoder         : Lavc62.28.101 aac
      handler_name    : SoundHandler
frame=  359 fps=0.0 q=22.0 size=    2304KiB time=00:00:05.98 bitrate=3151.4kbits/s speed=11.7x elapsed=0:00:00.51    frame=  573 fps=563 q=21.0 size=    3328KiB time=00:00:09.55 bitrate=2852.0kbits/s speed= 9.4x elapsed=0:00:01.01    frame=  910 fps=594 q=27.0 size=    6400KiB time=00:00:15.18 bitrate=3453.4kbits/s speed=9.92x elapsed=0:00:01.53    frame= 1185 fps=579 q=25.0 size=   10752KiB time=00:00:19.76 bitrate=4455.3kbits/s speed=9.66x elapsed=0:00:02.04    frame= 1472 fps=573 q=26.0 size=   13824KiB time=00:00:24.55 bitrate=4611.4kbits/s speed=9.56x elapsed=0:00:02.56    frame= 1752 fps=568 q=28.0 size=   18688KiB time=00:00:29.22 bitrate=5237.7kbits/s speed=9.48x elapsed=0:00:03.08    frame= 2145 fps=595 q=21.0 size=   23296KiB time=00:00:36.33 bitrate=5252.9kbits/s speed=10.1x elapsed=0:00:03.60    [mp4 @ 0000020d3dac4a80] Starting second pass: moving the moov atom to the beginning of the file
[out#0/mp4 @ 0000020d3f95d780] video:24270KiB audio:992KiB subtitle:0KiB other streams:0KiB global headers:0KiB muxing overhead: 0.254943%
frame= 2487 fps=638 q=-1.0 Lsize=   25327KiB time=00:00:41.49 bitrate=5000.5kbits/s speed=10.6x elapsed=0:00:03.90    
[libx264 @ 0000020d3ff18640] frame I:13    Avg QP:15.81  size: 93748
[libx264 @ 0000020d3ff18640] frame P:885   Avg QP:17.13  size: 17682
[libx264 @ 0000020d3ff18640] frame B:1589  Avg QP:18.91  size:  5025
[libx264 @ 0000020d3ff18640] consecutive B-frames:  9.7% 13.3%  6.4% 70.6%
[libx264 @ 0000020d3ff18640] mb I  I16..4: 26.6% 45.1% 28.4%
[libx264 @ 0000020d3ff18640] mb P  I16..4: 15.9% 18.2%  2.1%  P16..4: 18.5%  0.0%  0.0%  0.0%  0.0%    skip:45.2%
[libx264 @ 0000020d3ff18640] mb B  I16..4:  2.1%  3.0%  0.2%  B16..8: 10.8%  0.0%  0.0%  direct: 4.8%  skip:79.2%  L0:43.1% L1:49.7% BI: 7.2%
[libx264 @ 0000020d3ff18640] 8x8 transform intra:51.4% inter:50.1%
[libx264 @ 0000020d3ff18640] coded y,uvDC,uvAC intra: 26.5% 28.5% 8.5% inter: 2.4% 7.7% 0.1%
[libx264 @ 0000020d3ff18640] i16 v,h,dc,p: 57% 30%  4%  9%
[libx264 @ 0000020d3ff18640] i8 v,h,dc,ddl,ddr,vr,hd,vl,hu: 16% 27% 17%  6%  6%  6%  9%  4%  9%
[libx264 @ 0000020d3ff18640] i4 v,h,dc,ddl,ddr,vr,hd,vl,hu: 23% 31% 11%  7%  6%  5%  6%  4%  7%
[libx264 @ 0000020d3ff18640] i8c dc,h,v,p: 58% 21% 14%  7%
[libx264 @ 0000020d3ff18640] Weighted P-Frames: Y:12.3% UV:1.9%
[libx264 @ 0000020d3ff18640] kb/s:4791.77
[aac @ 0000020d3fb3d840] Qavg: 609.241
W0000 00:00:1778434681.695268    6656 inference_feedback_manager.cc:121] Feedback manager requires a model with a single signature inference. Disabling support for feedback tensors.
ffmpeg version 8.1.1-full_build-www.gyan.dev Copyright (c) 2000-2026 the FFmpeg developers
  built with gcc 15.2.0 (Rev13, Built by MSYS2 project)
  configuration: --enable-gpl --enable-version3 --enable-static --disable-w32threads --disable-autodetect --enable-cairo --enable-fontconfig --enable-iconv --enable-gnutls --enable-lcms2 --enable-libxml2 --enable-gmp --enable-bzlib --enable-lzma --enable-libsnappy --enable-zlib --enable-librist --enable-libsrt --enable-libssh --enable-libzmq --enable-avisynth --enable-libbluray --enable-libcaca --enable-libdvdnav --enable-libdvdread --enable-sdl2 --enable-libaribb24 --enable-libaribcaption --enable-libdav1d --enable-libdavs2 --enable-libopenjpeg --enable-libquirc --enable-libuavs3d --enable-libxevd --enable-libzvbi --enable-liboapv --enable-libqrencode --enable-librav1e --enable-libsvtav1 --enable-libvvenc --enable-libwebp --enable-libx264 --enable-libx265 --enable-libxavs2 --enable-libxeve --enable-libxvid --enable-libaom --enable-libjxl --enable-libsvtjpegxs --enable-libvpx --enable-mediafoundation --enable-libass --enable-frei0r --enable-libfreetype --enable-libfribidi --enable-libharfbuzz --enable-liblensfun --enable-libvidstab --enable-libvmaf --enable-libzimg --enable-amf --enable-cuda-llvm --enable-cuvid --enable-dxva2 --enable-d3d11va --enable-d3d12va --enable-ffnvcodec --enable-libvpl --enable-nvdec --enable-nvenc --enable-vaapi --enable-libshaderc --enable-vulkan --enable-libplacebo --enable-opencl --enable-libcdio --enable-openal --enable-libgme --enable-libmodplug --enable-libopenmpt --enable-libopencore-amrwb --enable-libmp3lame --enable-libshine --enable-libtheora --enable-libtwolame --enable-libvo-amrwbenc --enable-libcodec2 --enable-libilbc --enable-libgsm --enable-liblc3 --enable-libopencore-amrnb --enable-libopus --enable-libspeex --enable-libvorbis --enable-ladspa --enable-libbs2b --enable-libflite --enable-libmysofa --enable-librubberband --enable-libsoxr --enable-chromaprint --enable-whisper
  libavutil      60. 26.101 / 60. 26.101
  libavcodec     62. 28.101 / 62. 28.101
  libavformat    62. 12.101 / 62. 12.101
  libavdevice    62.  3.101 / 62.  3.101
  libavfilter    11. 14.101 / 11. 14.101
  libswscale      9.  5.101 /  9.  5.101
  libswresample   6.  3.101 /  6.  3.101
Input #0, avi, from 'C:\Users\Macie\AppData\Local\Temp\face_track_2opbag8n\segment_3_05-37_91_06-14_94_silent.avi':
  Metadata:
    software        : Lavf62.12.101
  Duration: 00:00:37.04, start: 0.000000, bitrate: 13745 kb/s
  Stream #0:0: Video: h264 (High) (H264 / 0x34363248), yuvj420p(pc, bt470bg/unknown/unknown, progressive), 1080x1920 [SAR 1:1 DAR 9:16], 13738 kb/s, 59.94 fps, 59.94 tbr, 59.94 tbn
Input #1, mov,mp4,m4a,3gp,3g2,mj2, from 'C:\Users\Macie\AppData\Local\Temp\face_track_2opbag8n\segment_3_05-37_91_06-14_94_audio.m4a':
  Metadata:
    major_brand     : M4A 
    minor_version   : 512
    compatible_brands: M4A isomiso2
    encoder         : Lavf62.12.101
  Duration: 00:00:37.03, start: 0.000000, bitrate: 199 kb/s
  Stream #1:0[0x1](eng): Audio: aac (LC) (mp4a / 0x6134706D), 48000 Hz, stereo, fltp, 197 kb/s (default)
    Metadata:
      handler_name    : SoundHandler
Stream mapping:
  Stream #0:0 -> #0:0 (h264 (native) -> h264 (libx264))
  Stream #1:0 -> #0:1 (aac (native) -> aac (native))
Press [q] to stop, [?] for help
[swscaler @ 0000027c3ef740c0] deprecated pixel format used, make sure you did set range correctly
[libx264 @ 0000027c3d420480] using SAR=1/1
[libx264 @ 0000027c3d420480] using cpu capabilities: MMX2 SSE2Fast SSSE3 SSE4.2 AVX FMA3 BMI2 AVX2 AVX512
[libx264 @ 0000027c3d420480] profile High, level 4.2, 4:2:0, 8-bit
[libx264 @ 0000027c3d420480] 264 - core 165 r3223 0480cb0 - H.264/MPEG-4 AVC codec - Copyleft 2003-2025 - http://www.videolan.org/x264.html - options: cabac=1 ref=1 deblock=1:0:0 analyse=0x3:0x3 me=dia subme=1 psy=1 psy_rd=1.00:0.00 mixed_ref=0 me_range=16 chroma_me=1 trellis=0 8x8dct=1 cqm=0 deadzone=21,11 fast_pskip=1 chroma_qp_offset=0 threads=24 lookahead_threads=4 sliced_threads=0 nr=0 decimate=1 interlaced=0 bluray_compat=0 constrained_intra=0 bframes=3 b_pyramid=2 b_adapt=1 b_bias=0 direct=1 weightb=1 open_gop=0 weightp=1 keyint=250 keyint_min=25 scenecut=40 intra_refresh=0 rc=crf mbtree=0 crf=23.0 qcomp=0.60 qpmin=0 qpmax=69 qpstep=4 ip_ratio=1.40 pb_ratio=1.30 aq=1:1.00
Output #0, mp4, to 'D:\PythonProjects\viral-cutter-ai\benchmarks\runs\20260510_171633\emeritos_gameplay\compare_generic\cuts_raw\segment_3_05-37_91_06-14_94.mp4':
  Metadata:
    software        : Lavf62.12.101
    encoder         : Lavf62.12.101
  Stream #0:0: Video: h264 (avc1 / 0x31637661), yuv420p(pc, bt470bg/unknown/unknown, progressive), 1080x1920 [SAR 1:1 DAR 9:16], q=2-31, 59.94 fps, 60k tbn
    Metadata:
      encoder         : Lavc62.28.101 libx264
    Side data:
      CPB properties: bitrate max/min/avg: 0/0/0 buffer size: 0 vbv_delay: N/A
  Stream #0:1(eng): Audio: aac (LC) (mp4a / 0x6134706D), 48000 Hz, stereo, fltp, 192 kb/s (default)
    Metadata:
      encoder         : Lavc62.28.101 aac
      handler_name    : SoundHandler
frame=  269 fps=0.0 q=26.0 size=    3840KiB time=00:00:04.48 bitrate=7009.6kbits/s speed=8.74x elapsed=0:00:00.51    frame=  573 fps=551 q=28.0 size=    7936KiB time=00:00:09.55 bitrate=6800.7kbits/s speed=9.19x elapsed=0:00:01.04    frame=  720 fps=466 q=28.0 size=   10240KiB time=00:00:12.01 bitrate=6983.6kbits/s speed=7.78x elapsed=0:00:01.54    frame= 1035 fps=502 q=27.0 size=   14336KiB time=00:00:17.26 bitrate=6801.4kbits/s speed=8.38x elapsed=0:00:02.06    frame= 1329 fps=515 q=27.0 size=   17920KiB time=00:00:22.17 bitrate=6621.0kbits/s speed=8.59x elapsed=0:00:02.58    frame= 1601 fps=517 q=26.0 size=   22784KiB time=00:00:27.26 bitrate=6845.9kbits/s speed=8.81x elapsed=0:00:03.09    frame= 1959 fps=541 q=27.0 size=   28160KiB time=00:00:33.23 bitrate=6940.6kbits/s speed=9.18x elapsed=0:00:03.61    [mp4 @ 0000027c3d5a8040] Starting second pass: moving the moov atom to the beginning of the file
[out#0/mp4 @ 0000027c3d1c6c40] video:31888KiB audio:896KiB subtitle:0KiB other streams:0KiB global headers:0KiB muxing overhead: 0.175375%
frame= 2217 fps=550 q=-1.0 Lsize=   32842KiB time=00:00:36.98 bitrate=7273.9kbits/s speed=9.17x elapsed=0:00:04.03    
[libx264 @ 0000027c3d420480] frame I:14    Avg QP:19.85  size: 78883
[libx264 @ 0000027c3d420480] frame P:845   Avg QP:21.06  size: 25244
[libx264 @ 0000027c3d420480] frame B:1358  Avg QP:22.54  size:  7523
[libx264 @ 0000027c3d420480] consecutive B-frames: 10.6% 21.6%  4.9% 63.0%
[libx264 @ 0000027c3d420480] mb I  I16..4: 13.3% 54.5% 32.2%
[libx264 @ 0000027c3d420480] mb P  I16..4:  9.6% 28.5%  2.9%  P16..4: 32.1%  0.0%  0.0%  0.0%  0.0%    skip:26.9%
[libx264 @ 0000027c3d420480] mb B  I16..4:  2.1%  3.9%  0.2%  B16..8: 22.2%  0.0%  0.0%  direct: 4.8%  skip:66.8%  L0:42.6% L1:50.3% BI: 7.1%
[libx264 @ 0000027c3d420480] 8x8 transform intra:67.9% inter:54.1%
[libx264 @ 0000027c3d420480] coded y,uvDC,uvAC intra: 36.5% 26.7% 5.1% inter: 4.0% 8.0% 0.1%
[libx264 @ 0000027c3d420480] i16 v,h,dc,p: 38% 35% 10% 17%
[libx264 @ 0000027c3d420480] i8 v,h,dc,ddl,ddr,vr,hd,vl,hu: 15% 26% 16%  6%  7%  6%  9%  5% 10%
[libx264 @ 0000027c3d420480] i4 v,h,dc,ddl,ddr,vr,hd,vl,hu: 20% 31% 11%  7%  6%  5%  7%  4%  7%
[libx264 @ 0000027c3d420480] i8c dc,h,v,p: 55% 22% 16%  7%
[libx264 @ 0000027c3d420480] Weighted P-Frames: Y:0.5% UV:0.1%
[libx264 @ 0000027c3d420480] kb/s:7062.50
[aac @ 0000027c3d806b00] Qavg: 699.791
W0000 00:00:1778434730.666943   21000 inference_feedback_manager.cc:121] Feedback manager requires a model with a single signature inference. Disabling support for feedback tensors.
ffmpeg version 8.1.1-full_build-www.gyan.dev Copyright (c) 2000-2026 the FFmpeg developers
  built with gcc 15.2.0 (Rev13, Built by MSYS2 project)
  configuration: --enable-gpl --enable-version3 --enable-static --disable-w32threads --disable-autodetect --enable-cairo --enable-fontconfig --enable-iconv --enable-gnutls --enable-lcms2 --enable-libxml2 --enable-gmp --enable-bzlib --enable-lzma --enable-libsnappy --enable-zlib --enable-librist --enable-libsrt --enable-libssh --enable-libzmq --enable-avisynth --enable-libbluray --enable-libcaca --enable-libdvdnav --enable-libdvdread --enable-sdl2 --enable-libaribb24 --enable-libaribcaption --enable-libdav1d --enable-libdavs2 --enable-libopenjpeg --enable-libquirc --enable-libuavs3d --enable-libxevd --enable-libzvbi --enable-liboapv --enable-libqrencode --enable-librav1e --enable-libsvtav1 --enable-libvvenc --enable-libwebp --enable-libx264 --enable-libx265 --enable-libxavs2 --enable-libxeve --enable-libxvid --enable-libaom --enable-libjxl --enable-libsvtjpegxs --enable-libvpx --enable-mediafoundation --enable-libass --enable-frei0r --enable-libfreetype --enable-libfribidi --enable-libharfbuzz --enable-liblensfun --enable-libvidstab --enable-libvmaf --enable-libzimg --enable-amf --enable-cuda-llvm --enable-cuvid --enable-dxva2 --enable-d3d11va --enable-d3d12va --enable-ffnvcodec --enable-libvpl --enable-nvdec --enable-nvenc --enable-vaapi --enable-libshaderc --enable-vulkan --enable-libplacebo --enable-opencl --enable-libcdio --enable-openal --enable-libgme --enable-libmodplug --enable-libopenmpt --enable-libopencore-amrwb --enable-libmp3lame --enable-libshine --enable-libtheora --enable-libtwolame --enable-libvo-amrwbenc --enable-libcodec2 --enable-libilbc --enable-libgsm --enable-liblc3 --enable-libopencore-amrnb --enable-libopus --enable-libspeex --enable-libvorbis --enable-ladspa --enable-libbs2b --enable-libflite --enable-libmysofa --enable-librubberband --enable-libsoxr --enable-chromaprint --enable-whisper
  libavutil      60. 26.101 / 60. 26.101
  libavcodec     62. 28.101 / 62. 28.101
  libavformat    62. 12.101 / 62. 12.101
  libavdevice    62.  3.101 / 62.  3.101
  libavfilter    11. 14.101 / 11. 14.101
  libswscale      9.  5.101 /  9.  5.101
  libswresample   6.  3.101 /  6.  3.101
Input #0, avi, from 'C:\Users\Macie\AppData\Local\Temp\face_track_17prj027\segment_4_04-14_05_04-59_95_silent.avi':
  Metadata:
    software        : Lavf62.12.101
  Duration: 00:00:45.90, start: 0.000000, bitrate: 13298 kb/s
  Stream #0:0: Video: h264 (High) (H264 / 0x34363248), yuvj420p(pc, bt470bg/unknown/unknown, progressive), 1080x1920 [SAR 1:1 DAR 9:16], 13290 kb/s, 59.94 fps, 59.94 tbr, 59.94 tbn
Input #1, mov,mp4,m4a,3gp,3g2,mj2, from 'C:\Users\Macie\AppData\Local\Temp\face_track_17prj027\segment_4_04-14_05_04-59_95_audio.m4a':
  Metadata:
    major_brand     : M4A 
    minor_version   : 512
    compatible_brands: M4A isomiso2
    encoder         : Lavf62.12.101
  Duration: 00:00:45.90, start: 0.000000, bitrate: 199 kb/s
  Stream #1:0[0x1](eng): Audio: aac (LC) (mp4a / 0x6134706D), 48000 Hz, stereo, fltp, 197 kb/s (default)
    Metadata:
      handler_name    : SoundHandler
Stream mapping:
  Stream #0:0 -> #0:0 (h264 (native) -> h264 (libx264))
  Stream #1:0 -> #0:1 (aac (native) -> aac (native))
Press [q] to stop, [?] for help
[swscaler @ 000001aa0c826f40] deprecated pixel format used, make sure you did set range correctly
[libx264 @ 000001aa08a249c0] using SAR=1/1
[libx264 @ 000001aa08a249c0] using cpu capabilities: MMX2 SSE2Fast SSSE3 SSE4.2 AVX FMA3 BMI2 AVX2 AVX512
[libx264 @ 000001aa08a249c0] profile High, level 4.2, 4:2:0, 8-bit
[libx264 @ 000001aa08a249c0] 264 - core 165 r3223 0480cb0 - H.264/MPEG-4 AVC codec - Copyleft 2003-2025 - http://www.videolan.org/x264.html - options: cabac=1 ref=1 deblock=1:0:0 analyse=0x3:0x3 me=dia subme=1 psy=1 psy_rd=1.00:0.00 mixed_ref=0 me_range=16 chroma_me=1 trellis=0 8x8dct=1 cqm=0 deadzone=21,11 fast_pskip=1 chroma_qp_offset=0 threads=24 lookahead_threads=4 sliced_threads=0 nr=0 decimate=1 interlaced=0 bluray_compat=0 constrained_intra=0 bframes=3 b_pyramid=2 b_adapt=1 b_bias=0 direct=1 weightb=1 open_gop=0 weightp=1 keyint=250 keyint_min=25 scenecut=40 intra_refresh=0 rc=crf mbtree=0 crf=23.0 qcomp=0.60 qpmin=0 qpmax=69 qpstep=4 ip_ratio=1.40 pb_ratio=1.30 aq=1:1.00
Output #0, mp4, to 'D:\PythonProjects\viral-cutter-ai\benchmarks\runs\20260510_171633\emeritos_gameplay\compare_generic\cuts_raw\segment_4_04-14_05_04-59_95.mp4':
  Metadata:
    software        : Lavf62.12.101
    encoder         : Lavf62.12.101
  Stream #0:0: Video: h264 (avc1 / 0x31637661), yuv420p(pc, bt470bg/unknown/unknown, progressive), 1080x1920 [SAR 1:1 DAR 9:16], q=2-31, 59.94 fps, 60k tbn
    Metadata:
      encoder         : Lavc62.28.101 libx264
    Side data:
      CPB properties: bitrate max/min/avg: 0/0/0 buffer size: 0 vbv_delay: N/A
  Stream #0:1(eng): Audio: aac (LC) (mp4a / 0x6134706D), 48000 Hz, stereo, fltp, 192 kb/s (default)
    Metadata:
      encoder         : Lavc62.28.101 aac
      handler_name    : SoundHandler
frame=  320 fps=0.0 q=21.0 size=    2816KiB time=00:00:05.33 bitrate=4321.1kbits/s speed=10.3x elapsed=0:00:00.51    frame=  573 fps=554 q=28.0 size=    6912KiB time=00:00:09.55 bitrate=5923.2kbits/s speed=9.24x elapsed=0:00:01.03    frame=  669 fps=435 q=28.0 size=    8704KiB time=00:00:11.16 bitrate=6388.5kbits/s speed=7.25x elapsed=0:00:01.53    frame=  918 fps=446 q=25.0 size=   13312KiB time=00:00:15.31 bitrate=7120.5kbits/s speed=7.44x elapsed=0:00:02.05    frame= 1204 fps=468 q=25.0 size=   17152KiB time=00:00:20.08 bitrate=6995.1kbits/s speed=7.81x elapsed=0:00:02.57    frame= 1516 fps=490 q=26.0 size=   20736KiB time=00:00:25.29 bitrate=6716.4kbits/s speed=8.18x elapsed=0:00:03.09    frame= 1788 fps=496 q=27.0 size=   24576KiB time=00:00:29.82 bitrate=6749.2kbits/s speed=8.28x elapsed=0:00:03.60    frame= 2087 fps=506 q=27.0 size=   28928KiB time=00:00:34.81 bitrate=6806.2kbits/s speed=8.44x elapsed=0:00:04.12    frame= 2409 fps=520 q=27.0 size=   34048KiB time=00:00:40.74 bitrate=6845.3kbits/s speed=8.79x elapsed=0:00:04.63    frame= 2703 fps=525 q=22.0 size=   39936KiB time=00:00:45.65 bitrate=7166.1kbits/s speed=8.86x elapsed=0:00:05.15    [mp4 @ 000001aa0ad500c0] Starting second pass: moving the moov atom to the beginning of the file
[out#0/mp4 @ 000001aa08a23980] video:39053KiB audio:1104KiB subtitle:0KiB other streams:0KiB global headers:0KiB muxing overhead: 0.175735%
frame= 2749 fps=531 q=-1.0 Lsize=   40227KiB time=00:00:45.86 bitrate=7185.4kbits/s speed=8.86x elapsed=0:00:05.17    
[libx264 @ 000001aa08a249c0] frame I:21    Avg QP:17.08  size: 57550
[libx264 @ 000001aa08a249c0] frame P:1066  Avg QP:19.22  size: 24452
[libx264 @ 000001aa08a249c0] frame B:1662  Avg QP:20.72  size:  7651
[libx264 @ 000001aa08a249c0] consecutive B-frames: 12.1% 19.2%  8.2% 60.5%
[libx264 @ 000001aa08a249c0] mb I  I16..4: 25.2% 55.1% 19.8%
[libx264 @ 000001aa08a249c0] mb P  I16..4: 17.7% 33.3%  2.7%  P16..4: 22.4%  0.0%  0.0%  0.0%  0.0%    skip:23.8%
[libx264 @ 000001aa08a249c0] mb B  I16..4:  3.5%  5.4%  0.2%  B16..8: 19.5%  0.0%  0.0%  direct: 4.8%  skip:66.6%  L0:43.2% L1:50.0% BI: 6.8%
[libx264 @ 000001aa08a249c0] 8x8 transform intra:61.2% inter:54.0%
[libx264 @ 000001aa08a249c0] coded y,uvDC,uvAC intra: 28.5% 26.4% 6.2% inter: 3.2% 9.0% 0.1%
[libx264 @ 000001aa08a249c0] i16 v,h,dc,p: 51% 30%  7% 12%
[libx264 @ 000001aa08a249c0] i8 v,h,dc,ddl,ddr,vr,hd,vl,hu: 16% 26% 17%  6%  6%  6%  9%  4%  9%
[libx264 @ 000001aa08a249c0] i4 v,h,dc,ddl,ddr,vr,hd,vl,hu: 22% 32% 12%  7%  5%  5%  7%  4%  7%
[libx264 @ 000001aa08a249c0] i8c dc,h,v,p: 59% 20% 14%  7%
[libx264 @ 000001aa08a249c0] Weighted P-Frames: Y:13.8% UV:6.0%
[libx264 @ 000001aa08a249c0] kb/s:6975.58
[aac @ 000001aa0ad951c0] Qavg: 859.910
W0000 00:00:1778434788.519241   28364 inference_feedback_manager.cc:121] Feedback manager requires a model with a single signature inference. Disabling support for feedback tensors.
ffmpeg version 8.1.1-full_build-www.gyan.dev Copyright (c) 2000-2026 the FFmpeg developers
  built with gcc 15.2.0 (Rev13, Built by MSYS2 project)
  configuration: --enable-gpl --enable-version3 --enable-static --disable-w32threads --disable-autodetect --enable-cairo --enable-fontconfig --enable-iconv --enable-gnutls --enable-lcms2 --enable-libxml2 --enable-gmp --enable-bzlib --enable-lzma --enable-libsnappy --enable-zlib --enable-librist --enable-libsrt --enable-libssh --enable-libzmq --enable-avisynth --enable-libbluray --enable-libcaca --enable-libdvdnav --enable-libdvdread --enable-sdl2 --enable-libaribb24 --enable-libaribcaption --enable-libdav1d --enable-libdavs2 --enable-libopenjpeg --enable-libquirc --enable-libuavs3d --enable-libxevd --enable-libzvbi --enable-liboapv --enable-libqrencode --enable-librav1e --enable-libsvtav1 --enable-libvvenc --enable-libwebp --enable-libx264 --enable-libx265 --enable-libxavs2 --enable-libxeve --enable-libxvid --enable-libaom --enable-libjxl --enable-libsvtjpegxs --enable-libvpx --enable-mediafoundation --enable-libass --enable-frei0r --enable-libfreetype --enable-libfribidi --enable-libharfbuzz --enable-liblensfun --enable-libvidstab --enable-libvmaf --enable-libzimg --enable-amf --enable-cuda-llvm --enable-cuvid --enable-dxva2 --enable-d3d11va --enable-d3d12va --enable-ffnvcodec --enable-libvpl --enable-nvdec --enable-nvenc --enable-vaapi --enable-libshaderc --enable-vulkan --enable-libplacebo --enable-opencl --enable-libcdio --enable-openal --enable-libgme --enable-libmodplug --enable-libopenmpt --enable-libopencore-amrwb --enable-libmp3lame --enable-libshine --enable-libtheora --enable-libtwolame --enable-libvo-amrwbenc --enable-libcodec2 --enable-libilbc --enable-libgsm --enable-liblc3 --enable-libopencore-amrnb --enable-libopus --enable-libspeex --enable-libvorbis --enable-ladspa --enable-libbs2b --enable-libflite --enable-libmysofa --enable-librubberband --enable-libsoxr --enable-chromaprint --enable-whisper
  libavutil      60. 26.101 / 60. 26.101
  libavcodec     62. 28.101 / 62. 28.101
  libavformat    62. 12.101 / 62. 12.101
  libavdevice    62.  3.101 / 62.  3.101
  libavfilter    11. 14.101 / 11. 14.101
  libswscale      9.  5.101 /  9.  5.101
  libswresample   6.  3.101 /  6.  3.101
Input #0, avi, from 'C:\Users\Macie\AppData\Local\Temp\face_track_e6yqe_u9\segment_5_00-06_56_00-40_74_silent.avi':
  Metadata:
    software        : Lavf62.12.101
  Duration: 00:00:34.18, start: 0.000000, bitrate: 10361 kb/s
  Stream #0:0: Video: h264 (High) (H264 / 0x34363248), yuvj420p(pc, bt470bg/unknown/unknown, progressive), 1080x1920 [SAR 1:1 DAR 9:16], 10353 kb/s, 59.94 fps, 59.94 tbr, 59.94 tbn
Input #1, mov,mp4,m4a,3gp,3g2,mj2, from 'C:\Users\Macie\AppData\Local\Temp\face_track_e6yqe_u9\segment_5_00-06_56_00-40_74_audio.m4a':
  Metadata:
    major_brand     : M4A 
    minor_version   : 512
    compatible_brands: M4A isomiso2
    encoder         : Lavf62.12.101
  Duration: 00:00:34.18, start: 0.000000, bitrate: 196 kb/s
  Stream #1:0[0x1](eng): Audio: aac (LC) (mp4a / 0x6134706D), 48000 Hz, stereo, fltp, 194 kb/s (default)
    Metadata:
      handler_name    : SoundHandler
Stream mapping:
  Stream #0:0 -> #0:0 (h264 (native) -> h264 (libx264))
  Stream #1:0 -> #0:1 (aac (native) -> aac (native))
Press [q] to stop, [?] for help
[swscaler @ 000001956b828940] deprecated pixel format used, make sure you did set range correctly
[libx264 @ 0000019569dc0840] using SAR=1/1
[libx264 @ 0000019569dc0840] using cpu capabilities: MMX2 SSE2Fast SSSE3 SSE4.2 AVX FMA3 BMI2 AVX2 AVX512
[libx264 @ 0000019569dc0840] profile High, level 4.2, 4:2:0, 8-bit
[libx264 @ 0000019569dc0840] 264 - core 165 r3223 0480cb0 - H.264/MPEG-4 AVC codec - Copyleft 2003-2025 - http://www.videolan.org/x264.html - options: cabac=1 ref=1 deblock=1:0:0 analyse=0x3:0x3 me=dia subme=1 psy=1 psy_rd=1.00:0.00 mixed_ref=0 me_range=16 chroma_me=1 trellis=0 8x8dct=1 cqm=0 deadzone=21,11 fast_pskip=1 chroma_qp_offset=0 threads=24 lookahead_threads=4 sliced_threads=0 nr=0 decimate=1 interlaced=0 bluray_compat=0 constrained_intra=0 bframes=3 b_pyramid=2 b_adapt=1 b_bias=0 direct=1 weightb=1 open_gop=0 weightp=1 keyint=250 keyint_min=25 scenecut=40 intra_refresh=0 rc=crf mbtree=0 crf=23.0 qcomp=0.60 qpmin=0 qpmax=69 qpstep=4 ip_ratio=1.40 pb_ratio=1.30 aq=1:1.00
Output #0, mp4, to 'D:\PythonProjects\viral-cutter-ai\benchmarks\runs\20260510_171633\emeritos_gameplay\compare_generic\cuts_raw\segment_5_00-06_56_00-40_74.mp4':
  Metadata:
    software        : Lavf62.12.101
    encoder         : Lavf62.12.101
  Stream #0:0: Video: h264 (avc1 / 0x31637661), yuv420p(pc, bt470bg/unknown/unknown, progressive), 1080x1920 [SAR 1:1 DAR 9:16], q=2-31, 59.94 fps, 60k tbn
    Metadata:
      encoder         : Lavc62.28.101 libx264
    Side data:
      CPB properties: bitrate max/min/avg: 0/0/0 buffer size: 0 vbv_delay: N/A
  Stream #0:1(eng): Audio: aac (LC) (mp4a / 0x6134706D), 48000 Hz, stereo, fltp, 192 kb/s (default)
    Metadata:
      encoder         : Lavc62.28.101 aac
      handler_name    : SoundHandler
frame=  312 fps=0.0 q=23.0 size=    2304KiB time=00:00:05.20 bitrate=3626.1kbits/s speed=  10x elapsed=0:00:00.51    frame=  573 fps=558 q=24.0 size=    5632KiB time=00:00:09.55 bitrate=4826.3kbits/s speed=9.31x elapsed=0:00:01.02    frame=  762 fps=491 q=27.0 size=    7680KiB time=00:00:12.71 bitrate=4949.0kbits/s speed= 8.2x elapsed=0:00:01.55    frame= 1081 fps=525 q=27.0 size=   11776KiB time=00:00:18.03 bitrate=5349.1kbits/s speed=8.76x elapsed=0:00:02.05    frame= 1389 fps=539 q=26.0 size=   15616KiB time=00:00:23.17 bitrate=5520.5kbits/s speed=   9x elapsed=0:00:02.57    frame= 1812 fps=585 q=26.0 size=   20224KiB time=00:00:30.78 bitrate=5381.9kbits/s speed=9.95x elapsed=0:00:03.09    [mp4 @ 0000019569990480] Starting second pass: moving the moov atom to the beginning of the file
[out#0/mp4 @ 0000019569b866c0] video:22290KiB audio:821KiB subtitle:0KiB other streams:0KiB global headers:0KiB muxing overhead: 0.232265%
frame= 2047 fps=605 q=-1.0 Lsize=   23165KiB time=00:00:34.15 bitrate=5556.7kbits/s speed=10.1x elapsed=0:00:03.38    
[libx264 @ 0000019569dc0840] frame I:15    Avg QP:16.51  size: 67565
[libx264 @ 0000019569dc0840] frame P:695   Avg QP:19.18  size: 19973
[libx264 @ 0000019569dc0840] frame B:1337  Avg QP:20.90  size:  5931
[libx264 @ 0000019569dc0840] consecutive B-frames:  7.3% 15.2%  5.0% 72.5%
[libx264 @ 0000019569dc0840] mb I  I16..4: 27.2% 49.8% 23.0%
[libx264 @ 0000019569dc0840] mb P  I16..4:  8.3% 17.2%  2.1%  P16..4: 30.0%  0.0%  0.0%  0.0%  0.0%    skip:42.3%
[libx264 @ 0000019569dc0840] mb B  I16..4:  1.3%  1.9%  0.1%  B16..8: 17.4%  0.0%  0.0%  direct: 7.3%  skip:72.0%  L0:42.2% L1:49.7% BI: 8.0%
[libx264 @ 0000019569dc0840] 8x8 transform intra:60.6% inter:51.3%
[libx264 @ 0000019569dc0840] coded y,uvDC,uvAC intra: 35.0% 48.6% 15.1% inter: 2.6% 12.9% 0.1%
[libx264 @ 0000019569dc0840] i16 v,h,dc,p: 51% 28%  8% 14%
[libx264 @ 0000019569dc0840] i8 v,h,dc,ddl,ddr,vr,hd,vl,hu: 19% 24% 17%  6%  7%  7%  8%  5%  7%
[libx264 @ 0000019569dc0840] i4 v,h,dc,ddl,ddr,vr,hd,vl,hu: 27% 25% 10%  7%  6%  7%  6%  6%  6%
[libx264 @ 0000019569dc0840] i8c dc,h,v,p: 42% 24% 19% 15%
[libx264 @ 0000019569dc0840] Weighted P-Frames: Y:2.2% UV:0.3%
[libx264 @ 0000019569dc0840] kb/s:5346.79
[aac @ 0000019569e620c0] Qavg: 958.312
Cutting segment 1: 1067.41s - 1115.79s -> D:\PythonProjects\viral-cutter-ai\benchmarks\runs\20260510_171633\emeritos_gameplay\compare_generic\cuts_raw\segment_1_17-47_41_18-35_79.mp4
Cutting segment 2: 998.20s - 1039.73s -> D:\PythonProjects\viral-cutter-ai\benchmarks\runs\20260510_171633\emeritos_gameplay\compare_generic\cuts_raw\segment_2_16-38_20_17-19_73.mp4
Cutting segment 3: 337.91s - 374.94s -> D:\PythonProjects\viral-cutter-ai\benchmarks\runs\20260510_171633\emeritos_gameplay\compare_generic\cuts_raw\segment_3_05-37_91_06-14_94.mp4
Cutting segment 4: 254.05s - 299.95s -> D:\PythonProjects\viral-cutter-ai\benchmarks\runs\20260510_171633\emeritos_gameplay\compare_generic\cuts_raw\segment_4_04-14_05_04-59_95.mp4
Cutting segment 5: 6.56s - 40.74s -> D:\PythonProjects\viral-cutter-ai\benchmarks\runs\20260510_171633\emeritos_gameplay\compare_generic\cuts_raw\segment_5_00-06_56_00-40_74.mp4
Done. Files saved in D:\PythonProjects\viral-cutter-ai\benchmarks\runs\20260510_171633\emeritos_gameplay\compare_generic\cuts_raw
$ D:\PythonProjects\viral-cutter-ai\.venv\Scripts\python.exe D:\PythonProjects\viral-cutter-ai\cutter.py --video "D:\PythonProjects\viral-cutter-ai\input\EMERITOS BANDITOS BEZ MVP MAJORA W ESEA INTERMEDIATE!.mp4" --windows D:\PythonProjects\viral-cutter-ai\benchmarks\runs\20260510_171633\emeritos_gameplay\compare_generic\top_windows.json --transcript D:\PythonProjects\viral-cutter-ai\benchmarks\runs\20260510_171633\emeritos_gameplay\shared\transcript.json --output-dir D:\PythonProjects\viral-cutter-ai\benchmarks\runs\20260510_171633\emeritos_gameplay\compare_generic\cuts_raw --cutting-log D:\PythonProjects\viral-cutter-ai\benchmarks\runs\20260510_171633\emeritos_gameplay\compare_generic\cutting_logic.json

